<svg width="117" height="49" viewBox="0 0 117 49" fill="none" xmlns="http://www.w3.org/2000/svg">
<mask id="path-1-outside-1_401_5" maskUnits="userSpaceOnUse" x="-0.0400085" y="-0.500002" width="117" height="50" fill="black">
<rect fill="white" x="-0.0400085" y="-0.500002" width="117" height="50"/>
<path d="M1.97999 46.1C1.29999 46.1 0.959991 45.76 0.959991 45.08C0.959991 44.84 1.09999 44.3 1.37999 43.46C2.17999 40.98 3.53999 37.94 5.45999 34.34C7.41999 30.74 9.93999 26.58 13.02 21.86C12.02 21.86 11.52 21.54 11.52 20.9C11.52 20.3 11.88 19.98 12.6 19.94H14.28C15.44 18.26 16.44 16.82 17.28 15.62C18.12 14.42 18.86 13.4 19.5 12.56C20.3 11.48 21.12 10.42 21.96 9.38C22.8 8.3 23.62 7.3 24.42 6.38C24.26 6.38 24.1 6.4 23.94 6.44C23.78 6.44 23.64 6.44 23.52 6.44C21.96 6.44 21.18 6.06 21.18 5.3C21.18 4.58 21.8 4.22 23.04 4.22H43.14C43.78 4.22 44.12 4.54 44.16 5.18C44.16 5.9 43.84 6.26 43.2 6.26H27.06C26.06 7.5 25.04 8.78 24 10.1C23 11.38 21.9 12.82 20.7 14.42C19.54 15.98 18.2 17.82 16.68 19.94H31.44C32.08 19.94 32.4 20.26 32.4 20.9C32.4 21.54 32.08 21.88 31.44 21.92H15.36C11.68 27.52 8.81999 32.22 6.77999 36.02C4.77999 39.82 3.49999 42.94 2.93999 45.38C2.81999 45.86 2.49999 46.1 1.97999 46.1Z"/>
<path d="M28.6575 47.54C27.9775 47.54 27.6375 47.22 27.6375 46.58C27.6375 46.34 27.6575 46.18 27.6975 46.1C29.1775 42.86 33.1975 38.02 39.7575 31.58C39.5575 31.62 39.3775 31.66 39.2175 31.7C39.0575 31.7 38.9375 31.7 38.8575 31.7C38.1775 31.7 37.8375 31.32 37.8375 30.56C37.8375 30.12 38.1775 29.84 38.8575 29.72C39.2575 29.64 39.6775 29.58 40.1175 29.54C40.5975 29.46 41.1975 29.34 41.9175 29.18C46.7575 24.14 51.4175 19.82 55.8975 16.22C60.4175 12.58 64.7375 9.6 68.8575 7.28C69.2175 7.08 69.5375 6.92 69.8175 6.8C70.0975 6.64 70.3375 6.56 70.5375 6.56C71.0175 6.56 71.2575 6.88 71.2575 7.52C71.2575 8.72 70.0575 12.84 67.6575 19.88L65.0175 27.62C66.0575 27.62 66.5775 27.94 66.5775 28.58C66.5775 29.3 65.8975 29.66 64.5375 29.66C63.7775 31.74 63.0575 34.04 62.3775 36.56C61.7375 39.04 61.1975 41.6 60.7575 44.24C60.5975 45.08 60.2375 45.5 59.6775 45.5C58.9975 45.5 58.6575 45.14 58.6575 44.42C58.6575 44.3 58.6975 44.04 58.7775 43.64C58.8575 43.24 58.9775 42.72 59.1375 42.08C59.6175 39.76 60.0375 37.84 60.3975 36.32C60.7975 34.8 61.1375 33.52 61.4175 32.48C61.7375 31.4 62.0175 30.42 62.2575 29.54C54.8975 29.7 48.4175 30.24 42.8175 31.16C41.2175 32.8 39.8775 34.2 38.7975 35.36C37.7175 36.48 36.9175 37.32 36.3975 37.88C33.9975 40.52 32.0775 42.92 30.6375 45.08C30.5175 45.28 30.3775 45.54 30.2175 45.86C30.0175 46.18 29.7775 46.56 29.4975 47C29.3375 47.36 29.0575 47.54 28.6575 47.54ZM45.2775 28.7C47.5975 28.38 50.2175 28.14 53.1375 27.98C56.0575 27.78 59.3375 27.64 62.9775 27.56C63.5775 25.72 64.1775 23.94 64.7775 22.22C65.3775 20.46 65.9575 18.78 66.5175 17.18C67.1975 15.42 68.0975 12.78 69.2175 9.26C64.5775 11.94 60.2575 14.9 56.2575 18.14C52.2975 21.38 48.6375 24.9 45.2775 28.7Z"/>
<path d="M69.9501 48.44C69.3101 48.44 68.9902 48.12 68.9902 47.48C68.9902 47.04 69.1301 46.4 69.4101 45.56C68.7301 45.56 68.3901 45.26 68.3901 44.66C68.3901 43.94 68.9701 43.62 70.1301 43.7C71.6101 40.1 75.2701 33.34 81.1101 23.42C82.6301 20.82 84.2102 18.18 85.8502 15.5C87.4902 12.82 89.1702 10.14 90.8902 7.46C85.4902 8.9 82.9701 9.62 83.3301 9.62C82.6901 9.62 82.3701 9.28 82.3701 8.6C82.3701 8.24 82.5902 7.96 83.0302 7.76C83.7102 7.44 84.8302 7.06 86.3902 6.62C87.9502 6.14 89.9502 5.6 92.3902 5C92.7502 4.44 93.0702 3.92 93.3502 3.44C93.6702 2.96 93.9701 2.54 94.2501 2.18C95.0901 1.06 95.6901 0.499998 96.0501 0.499998C96.6901 0.499998 97.0101 0.779998 97.0101 1.34C97.0101 1.58 96.7902 2.02 96.3502 2.66C95.9102 3.3 95.4901 3.96 95.0901 4.64C96.0501 4.48 97.2501 4.28 98.6901 4.04C100.13 3.76 101.91 3.62 104.03 3.62C111.99 3.62 115.97 5.44 115.97 9.08C115.97 10.56 115.49 11.94 114.53 13.22C113.57 14.46 112.27 15.6 110.63 16.64C109.03 17.68 107.25 18.62 105.29 19.46C103.33 20.26 101.35 20.96 99.3502 21.56C105.27 22.92 108.23 25.7 108.23 29.9C108.23 32.1 107.57 34.08 106.25 35.84C104.97 37.6 103.27 39.12 101.15 40.4C99.0301 41.68 96.6902 42.72 94.1301 43.52C88.9302 45.12 82.8702 45.92 75.9501 45.92C74.5101 45.92 73.0301 45.86 71.5101 45.74C71.1101 46.58 70.9101 47.16 70.9101 47.48C70.9101 48.12 70.5901 48.44 69.9501 48.44ZM76.3701 44C82.6101 44 88.1901 43.28 93.1101 41.84C95.3901 41.16 97.5302 40.24 99.5302 39.08C101.57 37.92 103.21 36.56 104.45 35C105.73 33.4 106.37 31.68 106.37 29.84C106.37 27.32 104.67 25.4 101.27 24.08C98.7101 23.12 95.9101 22.64 92.8701 22.64C91.8301 22.64 90.8301 22.7 89.8701 22.82C88.7901 23.1 88.1902 23.24 88.0702 23.24C87.4702 23.24 87.1702 22.9 87.1702 22.22C87.1702 21.66 87.4901 21.38 88.1301 21.38C92.2101 21.38 96.8702 20.46 102.11 18.62C104.03 17.94 105.89 17.14 107.69 16.22C109.53 15.26 111.03 14.2 112.19 13.04C113.39 11.84 113.99 10.58 113.99 9.26C113.99 6.86 110.67 5.66 104.03 5.66C102.47 5.66 100.83 5.76 99.1102 5.96C97.4302 6.16 95.6501 6.46 93.7701 6.86C89.0101 14.22 84.8301 20.98 81.2301 27.14C77.6301 33.3 74.6501 38.88 72.2901 43.88C72.6101 43.92 73.0102 43.96 73.4902 44C73.9702 44 74.9301 44 76.3701 44Z"/>
</mask>
<path d="M1.97999 46.1C1.29999 46.1 0.959991 45.76 0.959991 45.08C0.959991 44.84 1.09999 44.3 1.37999 43.46C2.17999 40.98 3.53999 37.94 5.45999 34.34C7.41999 30.74 9.93999 26.58 13.02 21.86C12.02 21.86 11.52 21.54 11.52 20.9C11.52 20.3 11.88 19.98 12.6 19.94H14.28C15.44 18.26 16.44 16.82 17.28 15.62C18.12 14.42 18.86 13.4 19.5 12.56C20.3 11.48 21.12 10.42 21.96 9.38C22.8 8.3 23.62 7.3 24.42 6.38C24.26 6.38 24.1 6.4 23.94 6.44C23.78 6.44 23.64 6.44 23.52 6.44C21.96 6.44 21.18 6.06 21.18 5.3C21.18 4.58 21.8 4.22 23.04 4.22H43.14C43.78 4.22 44.12 4.54 44.16 5.18C44.16 5.9 43.84 6.26 43.2 6.26H27.06C26.06 7.5 25.04 8.78 24 10.1C23 11.38 21.9 12.82 20.7 14.42C19.54 15.98 18.2 17.82 16.68 19.94H31.44C32.08 19.94 32.4 20.26 32.4 20.9C32.4 21.54 32.08 21.88 31.44 21.92H15.36C11.68 27.52 8.81999 32.22 6.77999 36.02C4.77999 39.82 3.49999 42.94 2.93999 45.38C2.81999 45.86 2.49999 46.1 1.97999 46.1Z" fill="#FF5733"/>
<path d="M28.6575 47.54C27.9775 47.54 27.6375 47.22 27.6375 46.58C27.6375 46.34 27.6575 46.18 27.6975 46.1C29.1775 42.86 33.1975 38.02 39.7575 31.58C39.5575 31.62 39.3775 31.66 39.2175 31.7C39.0575 31.7 38.9375 31.7 38.8575 31.7C38.1775 31.7 37.8375 31.32 37.8375 30.56C37.8375 30.12 38.1775 29.84 38.8575 29.72C39.2575 29.64 39.6775 29.58 40.1175 29.54C40.5975 29.46 41.1975 29.34 41.9175 29.18C46.7575 24.14 51.4175 19.82 55.8975 16.22C60.4175 12.58 64.7375 9.6 68.8575 7.28C69.2175 7.08 69.5375 6.92 69.8175 6.8C70.0975 6.64 70.3375 6.56 70.5375 6.56C71.0175 6.56 71.2575 6.88 71.2575 7.52C71.2575 8.72 70.0575 12.84 67.6575 19.88L65.0175 27.62C66.0575 27.62 66.5775 27.94 66.5775 28.58C66.5775 29.3 65.8975 29.66 64.5375 29.66C63.7775 31.74 63.0575 34.04 62.3775 36.56C61.7375 39.04 61.1975 41.6 60.7575 44.24C60.5975 45.08 60.2375 45.5 59.6775 45.5C58.9975 45.5 58.6575 45.14 58.6575 44.42C58.6575 44.3 58.6975 44.04 58.7775 43.64C58.8575 43.24 58.9775 42.72 59.1375 42.08C59.6175 39.76 60.0375 37.84 60.3975 36.32C60.7975 34.8 61.1375 33.52 61.4175 32.48C61.7375 31.4 62.0175 30.42 62.2575 29.54C54.8975 29.7 48.4175 30.24 42.8175 31.16C41.2175 32.8 39.8775 34.2 38.7975 35.36C37.7175 36.48 36.9175 37.32 36.3975 37.88C33.9975 40.52 32.0775 42.92 30.6375 45.08C30.5175 45.28 30.3775 45.54 30.2175 45.86C30.0175 46.18 29.7775 46.56 29.4975 47C29.3375 47.36 29.0575 47.54 28.6575 47.54ZM45.2775 28.7C47.5975 28.38 50.2175 28.14 53.1375 27.98C56.0575 27.78 59.3375 27.64 62.9775 27.56C63.5775 25.72 64.1775 23.94 64.7775 22.22C65.3775 20.46 65.9575 18.78 66.5175 17.18C67.1975 15.42 68.0975 12.78 69.2175 9.26C64.5775 11.94 60.2575 14.9 56.2575 18.14C52.2975 21.38 48.6375 24.9 45.2775 28.7Z" fill="#FF5733"/>
<path d="M69.9501 48.44C69.3101 48.44 68.9902 48.12 68.9902 47.48C68.9902 47.04 69.1301 46.4 69.4101 45.56C68.7301 45.56 68.3901 45.26 68.3901 44.66C68.3901 43.94 68.9701 43.62 70.1301 43.7C71.6101 40.1 75.2701 33.34 81.1101 23.42C82.6301 20.82 84.2102 18.18 85.8502 15.5C87.4902 12.82 89.1702 10.14 90.8902 7.46C85.4902 8.9 82.9701 9.62 83.3301 9.62C82.6901 9.62 82.3701 9.28 82.3701 8.6C82.3701 8.24 82.5902 7.96 83.0302 7.76C83.7102 7.44 84.8302 7.06 86.3902 6.62C87.9502 6.14 89.9502 5.6 92.3902 5C92.7502 4.44 93.0702 3.92 93.3502 3.44C93.6702 2.96 93.9701 2.54 94.2501 2.18C95.0901 1.06 95.6901 0.499998 96.0501 0.499998C96.6901 0.499998 97.0101 0.779998 97.0101 1.34C97.0101 1.58 96.7902 2.02 96.3502 2.66C95.9102 3.3 95.4901 3.96 95.0901 4.64C96.0501 4.48 97.2501 4.28 98.6901 4.04C100.13 3.76 101.91 3.62 104.03 3.62C111.99 3.62 115.97 5.44 115.97 9.08C115.97 10.56 115.49 11.94 114.53 13.22C113.57 14.46 112.27 15.6 110.63 16.64C109.03 17.68 107.25 18.62 105.29 19.46C103.33 20.26 101.35 20.96 99.3502 21.56C105.27 22.92 108.23 25.7 108.23 29.9C108.23 32.1 107.57 34.08 106.25 35.84C104.97 37.6 103.27 39.12 101.15 40.4C99.0301 41.68 96.6902 42.72 94.1301 43.52C88.9302 45.12 82.8702 45.92 75.9501 45.92C74.5101 45.92 73.0301 45.86 71.5101 45.74C71.1101 46.58 70.9101 47.16 70.9101 47.48C70.9101 48.12 70.5901 48.44 69.9501 48.44ZM76.3701 44C82.6101 44 88.1901 43.28 93.1101 41.84C95.3901 41.16 97.5302 40.24 99.5302 39.08C101.57 37.92 103.21 36.56 104.45 35C105.73 33.4 106.37 31.68 106.37 29.84C106.37 27.32 104.67 25.4 101.27 24.08C98.7101 23.12 95.9101 22.64 92.8701 22.64C91.8301 22.64 90.8301 22.7 89.8701 22.82C88.7901 23.1 88.1902 23.24 88.0702 23.24C87.4702 23.24 87.1702 22.9 87.1702 22.22C87.1702 21.66 87.4901 21.38 88.1301 21.38C92.2101 21.38 96.8702 20.46 102.11 18.62C104.03 17.94 105.89 17.14 107.69 16.22C109.53 15.26 111.03 14.2 112.19 13.04C113.39 11.84 113.99 10.58 113.99 9.26C113.99 6.86 110.67 5.66 104.03 5.66C102.47 5.66 100.83 5.76 99.1102 5.96C97.4302 6.16 95.6501 6.46 93.7701 6.86C89.0101 14.22 84.8301 20.98 81.2301 27.14C77.6301 33.3 74.6501 38.88 72.2901 43.88C72.6101 43.92 73.0102 43.96 73.4902 44C73.9702 44 74.9301 44 76.3701 44Z" fill="#FF5733"/>
<path d="M1.97999 46.1C1.29999 46.1 0.959991 45.76 0.959991 45.08C0.959991 44.84 1.09999 44.3 1.37999 43.46C2.17999 40.98 3.53999 37.94 5.45999 34.34C7.41999 30.74 9.93999 26.58 13.02 21.86C12.02 21.86 11.52 21.54 11.52 20.9C11.52 20.3 11.88 19.98 12.6 19.94H14.28C15.44 18.26 16.44 16.82 17.28 15.62C18.12 14.42 18.86 13.4 19.5 12.56C20.3 11.48 21.12 10.42 21.96 9.38C22.8 8.3 23.62 7.3 24.42 6.38C24.26 6.38 24.1 6.4 23.94 6.44C23.78 6.44 23.64 6.44 23.52 6.44C21.96 6.44 21.18 6.06 21.18 5.3C21.18 4.58 21.8 4.22 23.04 4.22H43.14C43.78 4.22 44.12 4.54 44.16 5.18C44.16 5.9 43.84 6.26 43.2 6.26H27.06C26.06 7.5 25.04 8.78 24 10.1C23 11.38 21.9 12.82 20.7 14.42C19.54 15.98 18.2 17.82 16.68 19.94H31.44C32.08 19.94 32.4 20.26 32.4 20.9C32.4 21.54 32.08 21.88 31.44 21.92H15.36C11.68 27.52 8.81999 32.22 6.77999 36.02C4.77999 39.82 3.49999 42.94 2.93999 45.38C2.81999 45.86 2.49999 46.1 1.97999 46.1Z" stroke="#FF5733" mask="url(#path-1-outside-1_401_5)"/>
<path d="M28.6575 47.54C27.9775 47.54 27.6375 47.22 27.6375 46.58C27.6375 46.34 27.6575 46.18 27.6975 46.1C29.1775 42.86 33.1975 38.02 39.7575 31.58C39.5575 31.62 39.3775 31.66 39.2175 31.7C39.0575 31.7 38.9375 31.7 38.8575 31.7C38.1775 31.7 37.8375 31.32 37.8375 30.56C37.8375 30.12 38.1775 29.84 38.8575 29.72C39.2575 29.64 39.6775 29.58 40.1175 29.54C40.5975 29.46 41.1975 29.34 41.9175 29.18C46.7575 24.14 51.4175 19.82 55.8975 16.22C60.4175 12.58 64.7375 9.6 68.8575 7.28C69.2175 7.08 69.5375 6.92 69.8175 6.8C70.0975 6.64 70.3375 6.56 70.5375 6.56C71.0175 6.56 71.2575 6.88 71.2575 7.52C71.2575 8.72 70.0575 12.84 67.6575 19.88L65.0175 27.62C66.0575 27.62 66.5775 27.94 66.5775 28.58C66.5775 29.3 65.8975 29.66 64.5375 29.66C63.7775 31.74 63.0575 34.04 62.3775 36.56C61.7375 39.04 61.1975 41.6 60.7575 44.24C60.5975 45.08 60.2375 45.5 59.6775 45.5C58.9975 45.5 58.6575 45.14 58.6575 44.42C58.6575 44.3 58.6975 44.04 58.7775 43.64C58.8575 43.24 58.9775 42.72 59.1375 42.08C59.6175 39.76 60.0375 37.84 60.3975 36.32C60.7975 34.8 61.1375 33.52 61.4175 32.48C61.7375 31.4 62.0175 30.42 62.2575 29.54C54.8975 29.7 48.4175 30.24 42.8175 31.16C41.2175 32.8 39.8775 34.2 38.7975 35.36C37.7175 36.48 36.9175 37.32 36.3975 37.88C33.9975 40.52 32.0775 42.92 30.6375 45.08C30.5175 45.28 30.3775 45.54 30.2175 45.86C30.0175 46.18 29.7775 46.56 29.4975 47C29.3375 47.36 29.0575 47.54 28.6575 47.54ZM45.2775 28.7C47.5975 28.38 50.2175 28.14 53.1375 27.98C56.0575 27.78 59.3375 27.64 62.9775 27.56C63.5775 25.72 64.1775 23.94 64.7775 22.22C65.3775 20.46 65.9575 18.78 66.5175 17.18C67.1975 15.42 68.0975 12.78 69.2175 9.26C64.5775 11.94 60.2575 14.9 56.2575 18.14C52.2975 21.38 48.6375 24.9 45.2775 28.7Z" stroke="#FF5733" mask="url(#path-1-outside-1_401_5)"/>
<path d="M69.9501 48.44C69.3101 48.44 68.9902 48.12 68.9902 47.48C68.9902 47.04 69.1301 46.4 69.4101 45.56C68.7301 45.56 68.3901 45.26 68.3901 44.66C68.3901 43.94 68.9701 43.62 70.1301 43.7C71.6101 40.1 75.2701 33.34 81.1101 23.42C82.6301 20.82 84.2102 18.18 85.8502 15.5C87.4902 12.82 89.1702 10.14 90.8902 7.46C85.4902 8.9 82.9701 9.62 83.3301 9.62C82.6901 9.62 82.3701 9.28 82.3701 8.6C82.3701 8.24 82.5902 7.96 83.0302 7.76C83.7102 7.44 84.8302 7.06 86.3902 6.62C87.9502 6.14 89.9502 5.6 92.3902 5C92.7502 4.44 93.0702 3.92 93.3502 3.44C93.6702 2.96 93.9701 2.54 94.2501 2.18C95.0901 1.06 95.6901 0.499998 96.0501 0.499998C96.6901 0.499998 97.0101 0.779998 97.0101 1.34C97.0101 1.58 96.7902 2.02 96.3502 2.66C95.9102 3.3 95.4901 3.96 95.0901 4.64C96.0501 4.48 97.2501 4.28 98.6901 4.04C100.13 3.76 101.91 3.62 104.03 3.62C111.99 3.62 115.97 5.44 115.97 9.08C115.97 10.56 115.49 11.94 114.53 13.22C113.57 14.46 112.27 15.6 110.63 16.64C109.03 17.68 107.25 18.62 105.29 19.46C103.33 20.26 101.35 20.96 99.3502 21.56C105.27 22.92 108.23 25.7 108.23 29.9C108.23 32.1 107.57 34.08 106.25 35.84C104.97 37.6 103.27 39.12 101.15 40.4C99.0301 41.68 96.6902 42.72 94.1301 43.52C88.9302 45.12 82.8702 45.92 75.9501 45.92C74.5101 45.92 73.0301 45.86 71.5101 45.74C71.1101 46.58 70.9101 47.16 70.9101 47.48C70.9101 48.12 70.5901 48.44 69.9501 48.44ZM76.3701 44C82.6101 44 88.1901 43.28 93.1101 41.84C95.3901 41.16 97.5302 40.24 99.5302 39.08C101.57 37.92 103.21 36.56 104.45 35C105.73 33.4 106.37 31.68 106.37 29.84C106.37 27.32 104.67 25.4 101.27 24.08C98.7101 23.12 95.9101 22.64 92.8701 22.64C91.8301 22.64 90.8301 22.7 89.8701 22.82C88.7901 23.1 88.1902 23.24 88.0702 23.24C87.4702 23.24 87.1702 22.9 87.1702 22.22C87.1702 21.66 87.4901 21.38 88.1301 21.38C92.2101 21.38 96.8702 20.46 102.11 18.62C104.03 17.94 105.89 17.14 107.69 16.22C109.53 15.26 111.03 14.2 112.19 13.04C113.39 11.84 113.99 10.58 113.99 9.26C113.99 6.86 110.67 5.66 104.03 5.66C102.47 5.66 100.83 5.76 99.1102 5.96C97.4302 6.16 95.6501 6.46 93.7701 6.86C89.0101 14.22 84.8301 20.98 81.2301 27.14C77.6301 33.3 74.6501 38.88 72.2901 43.88C72.6101 43.92 73.0102 43.96 73.4902 44C73.9702 44 74.9301 44 76.3701 44Z" stroke="#FF5733" mask="url(#path-1-outside-1_401_5)"/>
</svg>
