<svg width="85" height="48" viewBox="0 0 85 48" fill="none" xmlns="http://www.w3.org/2000/svg">
<path d="M1.05469 46.3555C0.859375 45.8086 0.800781 45.2617 0.878906 44.7148C0.996094 44.1289 1.17188 43.543 1.40625 42.957C1.64062 42.3711 1.89453 41.8047 2.16797 41.2578C2.48047 40.7109 2.73438 40.1836 2.92969 39.6758C3.125 39.2852 3.4375 38.6016 3.86719 37.625C4.33594 36.6094 4.80469 35.5547 5.27344 34.4609C5.78125 33.3281 6.25 32.2539 6.67969 31.2383C7.10938 30.2227 7.42188 29.5195 7.61719 29.1289C7.85156 28.6602 7.8125 28.25 7.5 27.8984C7.22656 27.5078 6.91406 27.1367 6.5625 26.7852C6.25 26.4336 5.99609 26.082 5.80078 25.7305C5.64453 25.3789 5.80078 24.9688 6.26953 24.5C6.54297 24.2266 6.89453 24.0508 7.32422 23.9727C7.75391 23.8945 8.20312 23.8359 8.67188 23.7969C9.14062 23.7188 9.57031 23.6016 9.96094 23.4453C10.3516 23.2891 10.6641 22.9766 10.8984 22.5078L17.5781 9.85156C17.3047 8.79688 17.207 7.91797 17.2852 7.21484C17.4023 6.51172 17.6367 5.90625 17.9883 5.39844C18.3789 4.89063 18.8672 4.42188 19.4531 3.99219C20.0781 3.5625 20.7812 3.07422 21.5625 2.52734C25.5859 1.90234 29.5312 1.375 33.3984 0.945312C37.3047 0.515625 41.3086 0.398437 45.4102 0.59375C45.6445 0.632812 45.9375 0.808594 46.2891 1.12109C46.6406 1.39453 46.9336 1.72656 47.168 2.11719C47.4023 2.46875 47.5 2.82031 47.4609 3.17188C47.4609 3.52344 47.207 3.75781 46.6992 3.875C46.6602 3.875 46.543 3.85547 46.3477 3.81641C46.1523 3.73828 45.9375 3.66016 45.7031 3.58203C45.4688 3.50391 45.2539 3.42578 45.0586 3.34766C44.8633 3.26953 44.7461 3.23047 44.707 3.23047C41.582 3.23047 38.8672 3.26953 36.5625 3.34766C34.2578 3.42578 32.2461 3.60156 30.5273 3.875C28.8477 4.10938 27.3828 4.48047 26.1328 4.98828C24.9219 5.49609 23.8281 6.19922 22.8516 7.09766C21.9141 7.95703 21.0156 9.05078 20.1562 10.3789C19.3359 11.707 18.4766 13.3281 17.5781 15.2422C17.1484 16.0625 16.7578 16.8438 16.4062 17.5859C16.0938 18.25 15.8398 18.9141 15.6445 19.5781C15.4492 20.2031 15.4297 20.7305 15.5859 21.1602C17.7734 21.5508 19.9805 21.5117 22.207 21.043C24.4727 20.5742 26.7383 20.0078 29.0039 19.3438C31.2695 18.6797 33.5352 18.0938 35.8008 17.5859C38.1055 17.0391 40.4102 16.9023 42.7148 17.1758V18.5234C42.7148 18.6016 41.9922 18.7773 40.5469 19.0508C39.1016 19.2852 37.2461 19.6367 34.9805 20.1055C32.7539 20.5352 30.293 21.082 27.5977 21.7461C24.9414 22.3711 22.3828 23.1133 19.9219 23.9727C17.4609 24.832 15.293 25.8086 13.418 26.9023C11.543 27.9961 10.2734 29.1875 9.60938 30.4766C8.35938 33.0156 7.16797 35.6328 6.03516 38.3281C4.90234 40.9844 3.86719 43.6602 2.92969 46.3555C2.69531 46.707 2.36328 46.9219 1.93359 47C1.54297 47.0781 1.25 46.8633 1.05469 46.3555ZM47.9297 46.8242C46.7578 46.1602 45.9375 45.5156 45.4688 44.8906C45 44.2656 44.7656 43.6016 44.7656 42.8984C44.7656 42.1953 44.9414 41.4141 45.293 40.5547C45.6445 39.6953 46.0547 38.6992 46.5234 37.5664C46.6406 37.332 46.875 36.8633 47.2266 36.1602C47.5781 35.418 47.9688 34.5586 48.3984 33.582C48.8672 32.6055 49.3555 31.5898 49.8633 30.5352C50.4102 29.4414 50.8984 28.4062 51.3281 27.4297C51.7969 26.4531 52.1875 25.6133 52.5 24.9102C52.8516 24.168 53.0859 23.6797 53.2031 23.4453C53.7109 22.3516 53.9258 21.3945 53.8477 20.5742C53.8086 19.7148 53.7109 18.9141 53.5547 18.1719C53.4375 17.4297 53.3789 16.707 53.3789 16.0039C53.418 15.3008 53.7891 14.5 54.4922 13.6016C54.6094 13.4844 54.8633 13.2109 55.2539 12.7812C55.6445 12.3516 56.0547 11.9023 56.4844 11.4336C56.9531 10.9258 57.3828 10.4766 57.7734 10.0859C58.1641 9.65625 58.3984 9.38281 58.4766 9.26562C58.6719 9.03125 59.2188 8.64063 60.1172 8.09375C61.0547 7.54687 62.1875 6.96094 63.5156 6.33594C64.8438 5.67187 66.3086 5.00781 67.9102 4.34375C69.5508 3.64062 71.1719 3.03516 72.7734 2.52734C74.375 1.98047 75.918 1.57031 77.4023 1.29688C78.8867 1.02344 80.1562 0.945312 81.2109 1.0625C82.2656 1.17969 83.0273 1.55078 83.4961 2.17578C84.0039 2.80078 84.082 3.75781 83.7305 5.04688C83.1445 7.15625 82.1875 9.01172 80.8594 10.6133C79.5703 12.2148 78.2031 13.6406 76.7578 14.8906C75.3125 16.1406 73.9258 17.2539 72.5977 18.2305C71.3086 19.207 70.3516 20.125 69.7266 20.9844C74.4141 21.1406 77.832 21.707 79.9805 22.6836C82.168 23.6602 83.3984 24.8906 83.6719 26.375C83.9844 27.8594 83.5156 29.5195 82.2656 31.3555C81.0156 33.1523 79.2969 34.9492 77.1094 36.7461C74.9219 38.5039 72.4414 40.1836 69.668 41.7852C66.8945 43.3477 64.1211 44.6367 61.3477 45.6523C58.6133 46.668 56.0352 47.3125 53.6133 47.5859C51.2305 47.8594 49.3359 47.6055 47.9297 46.8242ZM52.5586 32.6445C51.8164 33.543 51.1328 34.5391 50.5078 35.6328C49.8828 36.6875 49.3945 37.7422 49.043 38.7969C48.7305 39.8125 48.5938 40.7891 48.6328 41.7266C48.6719 42.625 48.9648 43.3672 49.5117 43.9531C50.0586 44.5 50.8789 44.832 51.9727 44.9492C53.1055 45.0664 54.6094 44.8516 56.4844 44.3047C60.625 43.3672 64.2188 42.1758 67.2656 40.7305C70.3516 39.2852 72.8906 37.7812 74.8828 36.2188C76.9141 34.6172 78.3984 33.0352 79.3359 31.4727C80.3125 29.9102 80.7617 28.543 80.6836 27.3711C80.6445 26.1602 80.0781 25.2422 78.9844 24.6172C77.9297 23.9922 76.3867 23.8164 74.3555 24.0898C72.3242 24.3242 69.8047 25.125 66.7969 26.4922C63.8281 27.8203 60.3906 29.8711 56.4844 32.6445C56.0547 32.9961 55.6641 33.1719 55.3125 33.1719C54.9609 33.1328 54.6289 33.0547 54.3164 32.9375C54.0039 32.7812 53.7109 32.6445 53.4375 32.5273C53.1641 32.4102 52.8711 32.4492 52.5586 32.6445ZM53.8477 27.7227C53.8477 27.8398 53.8281 28.0156 53.7891 28.25C53.7891 28.4844 53.7891 28.7383 53.7891 29.0117C53.7891 29.2461 53.7891 29.4805 53.7891 29.7148C53.8281 29.9492 53.8477 30.125 53.8477 30.2422C54.1602 30.1641 54.8047 29.793 55.7812 29.1289C56.7578 28.4648 57.9297 27.6055 59.2969 26.5508C60.7031 25.4961 62.2266 24.3047 63.8672 22.9766C65.5078 21.6094 67.1484 20.2031 68.7891 18.7578C70.4688 17.2734 72.0508 15.8086 73.5352 14.3633C75.0586 12.8789 76.3672 11.4922 77.4609 10.2031C78.5547 8.91406 79.375 7.78125 79.9219 6.80469C80.5078 5.78906 80.6836 5.00781 80.4492 4.46094C78.7305 4.22656 76.9141 4.34375 75 4.8125C73.125 5.24219 71.2695 5.88672 69.4336 6.74609C67.6367 7.60547 65.957 8.60156 64.3945 9.73438C62.832 10.8281 61.5234 11.9023 60.4688 12.957C60.2344 13.4648 59.8438 14.3633 59.2969 15.6523C58.75 16.9414 58.1445 18.3086 57.4805 19.7539C56.8555 21.1992 56.25 22.5664 55.6641 23.8555C55.1172 25.1055 54.7266 25.9844 54.4922 26.4922C54.4922 26.5703 54.3945 26.7852 54.1992 27.1367C54.0039 27.4492 53.8867 27.6445 53.8477 27.7227Z" fill="#FF5733"/>
</svg>
